<?xml version="1.0" encoding="UTF-8"?>
<svg id="Layer_1" data-name="Layer 1" xmlns="http://www.w3.org/2000/svg" xmlns:xlink="http://www.w3.org/1999/xlink" viewBox="0 0 647.53 648">
  <defs>
    <style>
      .cls-1 {
        fill: none;
      }

      .cls-2 {
        isolation: isolate;
      }

      .cls-3 {
        clip-path: url(#clippath-1);
      }

      .cls-4 {
        clip-path: url(#clippath-2);
      }

      .cls-5, .cls-6 {
        fill: #3f15f9;
      }

      .cls-6 {
        font-family: HelveticaNeue, 'Helvetica Neue';
        font-size: 31px;
      }

      .cls-7 {
        clip-path: url(#clippath);
      }
    </style>
    <clipPath id="clippath">
      <rect class="cls-1" x="9.39" y="9.39" width="628.76" height="629.21"/>
    </clipPath>
    <clipPath id="clippath-1">
      <rect class="cls-1" x="9.39" y="9.39" width="628.76" height="629.21"/>
    </clipPath>
    <clipPath id="clippath-2">
      <rect class="cls-1" x="493.38" y="29.16" width="24.8" height="41.48"/>
    </clipPath>
  </defs>
  <g id="Orb_blue">
    <g class="cls-7">
      <g class="cls-3">
        <path class="cls-5" d="M330.87,91.9c-261.03,96.89-33.93,545.52,146.96,354.81.94-1.59.35-3.59-1.28-4.46-65.12-34.92-139.69-115.29-144.3-176.92-2.04-27.29,4.72-76.47,72.85-99.18,43.95-14.65,82.29-6.31,107.95,23.49,41.8,48.54,39.85,141.41,14.52,216.79-.67,1.99.7,4.09,2.79,4.26,138.06,11.74,128.3-443.9-199.5-318.8h.01Z"/>
        <path class="cls-5" d="M633.29,339.6c-4.07,21.27-10.76,42.12-20.15,61.92-18.63,41.45-55.45,60.66-101.06,52.69-.11-.02-.22-.04-.34-.06-2.55-.46-5.1.79-6.36,3.05-35.68,64.19-88.39,98.13-145.82,93.44-68.97-5.63-131.64-38.53-176.45-92.64-43.19-52.16-64.9-119.69-59.55-185.27,6.03-73.9,44.68-142.46,106.05-188.11,22.89-17.03,47.95-30.06,73.59-38.61,28.5-9.5,57.74-13.46,85.52-11.19,31.19,2.55,60.11,8.91,86.58,18.89,3.45,1.47,5.36-2.63,2.16-4.37-32.25-18.07-68.14-30.68-106.54-36.44C185.23-14.97,15.34,126.87,9.54,314.55c-5.12,165.71,120.2,308.43,287.4,322.87,173.1,14.95,325.55-113.26,340.5-286.37.29-3.36.52-6.7.7-10.04.17-4.99-4.11-4.77-4.85-1.41Z"/>
        <path class="cls-5" d="M414.87,194.09c-78.41,33.97,40.46,194.47,73.5,217.6,5.02,3.87,7.61-2.13,7.61-2.13,22.16-44.18,36.31-266.59-81.11-215.47Z"/>
        <g class="cls-2">
          <g class="cls-4">
            <text class="cls-6" transform="translate(493.38 55.73)"><tspan x="0" y="0">®</tspan></text>
          </g>
        </g>
      </g>
    </g>
  </g>
</svg>